:SAMPLES-PER-SECOND 30
:FULLY-SPECIFIED
:DEGREES
354
root  34.72803371 36.52254841 -14.82205128 8.038741112 -2.262140751 3.414474964
lowerback  -7.886459827 -0.1195270121 -0.2147493809
upperback  -3.605129957 0.2616179883 -3.061170101
thorax  0.709011972 0.2733274698 -3.014719963
lowerneck  -14.64389992 2.241849899 2.043450117
upperneck  17.33270073 2.186990023 4.089220047
head  7.747719765 1.726119995 1.271259904
lclavicle  0 -4.497500157e-015 -2.743230041e-014
lhumerus  -45.67250061 26.29140091 67.93340302
lradius  1.785696099e-006 -6.507048965e-006 30.78310013
lwrist  4.824992743e-007 -3.790274832e-007 -25.13150024
lhand  -4.405300586e-031 -36.72040176 -10.72439957
lfingers  90 7.125020027 -90
lthumb  94.74225044 -25.56571091 100.8814038
rclavicle  0 -4.497500157e-015 -2.743230041e-014
rhumerus  -58.27880478 -37.73949814 -43.53279495
rradius  -5.16745672e-007 2.214343908e-008 45.04769897
rwrist  -0.0001064338358 0.02974390797 -157.5110016
rhand  -1.775242907e-031 5.986219883 -7.881830215
rfingers  -90 -7.125020027 -90
rthumb  -84.88329923 -8.341505645 -58.31643225
rfemur  -11.23383999 15.90900135 13.92604256
rtibia  -1.285261631 -0.02018658631 20.72374153
rfoot  0.03302918375 -20.20659065 -38.16208267
rtoes  4.099939364 19.59211694 -102.066185
lfemur  -6.885115623 -17.17336464 -20.19428062
ltibia  3.195713043 -0.0898707062 13.59112263
lfoot  0.6276164055 -24.79903603 35.89726257
ltoes  -8.506763157 -18.16811184 -115.6267749
355
root  34.72791957 36.52238621 -14.82220447 8.038085938 -2.176615715 3.405288458
lowerback  -7.890969753 -0.1233559474 -0.2309067845
upperback  -3.5963099 0.2574259937 -3.056380033
thorax  0.720377028 0.2671572268 -3.000930071
lowerneck  -14.70289993 2.234879971 2.063420057
upperneck  17.36420059 2.177459955 4.040909767
head  7.769489765 1.718569994 1.252509952
lclavicle  0 -4.497500157e-015 -2.743230041e-014
lhumerus  -45.64089966 26.2894001 67.97119904
lradius  1.785696099e-006 -6.507048965e-006 30.7546978
lwrist  4.824992743e-007 -3.790274832e-007 -25.15649986
lhand  -4.405300586e-031 -36.72040176 -10.72439957
lfingers  90 7.125020027 -90
lthumb  94.74225044 -25.56571091 100.8814038
rclavicle  0 -4.497500157e-015 -2.743230041e-014
rhumerus  -58.48469925 -38.22689819 -43.14199829
rradius  -5.16745672e-007 2.214343908e-008 43.74330139
rwrist  -0.0001064338358 0.02974390797 -157.0180054
rhand  -1.775242907e-031 5.986219883 -7.881830215
rfingers  -90 -7.125020027 -90
rthumb  -84.88329923 -8.341505645 -58.31643225
rfemur  -11.23296547 15.97987556 13.94913864
rtibia  -1.289150715 0.04777400568 20.74419785
rfoot  0.02024747431 -20.07999229 -38.26079559
rtoes  4.099939364 19.59211694 -102.066185
lfemur  -6.873473167 -17.21448135 -20.17734909
ltibia  3.199083328 -0.07944260538 13.56331825
lfoot  0.6137586832 -24.7963829 35.88189697
ltoes  -8.506763157 -18.16811184 -115.6267749
356
root  34.72529434 36.52102853 -14.82186355 8.013899803 -2.072733879 3.390369415
lowerback  -7.905760765 -0.1267224997 -0.2347215861
upperback  -3.594079971 0.2529127598 -3.060889959
thorax  0.730659008 0.2618240118 -3.003750086
lowerneck  -14.73900032 2.207609892 2.057410002
upperneck  17.35639954 2.141069889 4.023620129
head  7.773829937 1.698439956 1.244199991
lclavicle  0 -4.497500157e-015 -2.743230041e-014
lhumerus  -45.60319901 26.28249931 68.01650238
lradius  1.785696099e-006 -6.507048965e-006 30.73600006
lwrist  4.824992743e-007 -3.790274832e-007 -25.15126419
lhand  -4.405300586e-031 -36.72040176 -10.72439957
lfingers  90 7.125020027 -90
lthumb  94.74225044 -25.56571091 100.8814038
rclavicle  0 -4.497500157e-015 -2.743230041e-014
rhumerus  -58.49039459 -38.57529831 -42.91130447
rradius  -5.16745672e-007 2.214343908e-008 42.68099976
rwrist  -0.0001064338358 0.02974390797 -155.4519958
rhand  -1.775242907e-031 5.986219883 -7.881830215
rfingers  -90 -7.125020027 -90
rthumb  -84.88329923 -8.341505645 -58.31643225
rfemur  -11.17217255 16.00541878 13.99252796
rtibia  -1.293389082 0.08764550835 20.71453667
rfoot  0.03232777119 -20.00981331 -38.32954025
rtoes  4.099939364 19.59211694 -102.066185
lfemur  -6.847242832 -17.23741913 -20.1554985
ltibia  3.199995518 -0.06166236103 13.5593729
lfoot  0.6037456393 -24.83214378 35.82736206
ltoes  -8.506763157 -18.16811184 -115.6267749
357
root  34.72427909 36.52049988 -14.82140549 8.012272835 -1.986746311 3.393227339
lowerback  -7.916570187 -0.1275770664 -0.2302603424
upperback  -3.573240042 0.2505800128 -3.038330078
thorax  0.7579529881 0.2605809867 -2.983069897
lowerneck  -14.80749989 2.17614007 1.945150018
upperneck  17.36039925 2.109009981 4.068459988
head  7.785480022 1.679579973 1.274950027
lclavicle  0 -4.497500157e-015 -2.743230041e-014
lhumerus  -45.53680038 26.31719971 68.10160065
lradius  1.785696099e-006 -6.507048965e-006 30.68730164
lwrist  4.824992743e-007 -3.790274832e-007 -25.14599991
lhand  -4.405300586e-031 -36.72040176 -10.72439957
lfingers  90 7.125020027 -90
lthumb  94.74225044 -25.56571091 100.8814038
rclavicle  0 -4.497500157e-015 -2.743230041e-014
rhumerus  -58.60690308 -38.93370056 -42.5759964
rradius  -5.16745672e-007 2.214343908e-008 41.65480042
rwrist  -0.0001064338358 0.02974390797 -154.154007
rhand  -1.775242907e-031 5.986219883 -7.881830215
rfingers  -90 -7.125020027 -90
rthumb  -84.88329923 -8.341505645 -58.31643225
rfemur  -11.14126205 15.96783066 14.00362015
rtibia  -1.297106028 0.07558973134 20.68660164
rfoot  0.02643441036 -20.01698112 -38.38975906
rtoes  4.099939364 19.59211694 -102.066185
lfemur  -6.846969128 -17.21199036 -20.14933395
ltibia  3.213560104 -0.03075538948 13.54904366
lfoot  0.6006110311 -24.8962059 35.74491501
ltoes  -8.506763157 -18.16811184 -115.6267749
358
root  34.72373242 36.52094743 -14.82093391 8.029686928 -1.912868023 3.387868643
lowerback  -7.912909508 -0.1213580295 -0.2281704396
upperback  -3.541470051 0.2551099956 -3.020040035
thorax  0.7889419794 0.2615700066 -2.964790106
lowerneck  -14.85070038 2.14703989 1.861430049
upperneck  17.31529999 2.079509974 4.082230091
head  7.777150154 1.658699989 1.28963995
lclavicle  0 -4.497500157e-015 -2.743230041e-014
lhumerus  -45.45840073 26.35700035 68.17780304
lradius  1.785696099e-006 -6.507048965e-006 30.6303997
lwrist  4.824992743e-007 -3.790274832e-007 -25.16909981
lhand  -4.405300586e-031 -36.72040176 -10.72439957
lfingers  90 7.125020027 -90
lthumb  94.74225044 -25.56571091 100.8814038
rclavicle  0 -4.497500157e-015 -2.743230041e-014
rhumerus  -58.92550278 -39.33869934 -42.15569687
rradius  -5.16745672e-007 2.214343908e-008 40.65800095
rwrist  -0.0001064338358 0.02974390797 -153.897995
rhand  -1.775242907e-031 5.986219883 -7.881830215
rfingers  -90 -7.125020027 -90
rthumb  -84.88329923 -8.341505645 -58.31643225
rfemur  -11.14430046 15.97821045 14.02009964
rtibia  -1.298213482 0.09756085277 20.67160606
rfoot  0.02301699668 -19.94909859 -38.46738815
rtoes  4.099939364 19.59211694 -102.066185
lfemur  -6.917396545 -17.21671486 -20.1084671
ltibia  3.182392836 -0.009526155889 13.61598206
lfoot  0.6035876274 -24.96901512 35.68816376
ltoes  -8.506763157 -18.16811184 -115.6267749
359
root  34.7267211 36.52118773 -14.82052991 8.033683777 -1.843190789 3.363694906
lowerback  -7.940608978 -0.1061868966 -0.2422572225
upperback  -3.512729883 0.2750850022 -3.010859966
thorax  0.8348940015 0.2711479962 -2.945509911
lowerneck  -14.87530041 2.090640068 1.736330032
upperneck  17.25219917 2.018690109 4.118060112
head  7.759230137 1.621909976 1.314360023
lclavicle  0 -4.497500157e-015 -2.743230041e-014
lhumerus  -45.37799835 26.32710075 68.29699707
lradius  1.785696099e-006 -6.507048965e-006 30.58920097
lwrist  4.824992743e-007 -3.790274832e-007 -25.17000008
lhand  -4.405300586e-031 -36.72040176 -10.72439957
lfingers  90 7.125020027 -90
lthumb  94.74225044 -25.56571091 100.8814038
rclavicle  0 -4.497500157e-015 -2.743230041e-014
rhumerus  -59.33430099 -39.94319916 -41.55699921
rradius  -5.16745672e-007 2.214343908e-008 39.82749939
rwrist  -0.0001064338358 0.02974390797 -152.6300049
rhand  -1.775242907e-031 5.986219883 -7.881830215
rfingers  -90 -7.125020027 -90
rthumb  -84.88329923 -8.341505645 -58.31643225
rfemur  -11.12415886 15.98827839 14.0499506
rtibia  -1.292014003 0.1543595344 20.63368416
rfoot  0.04219719023 -19.81947327 -38.52241898
rtoes  4.099939364 19.59211694 -102.066185
lfemur  -7.010111809 -17.1975708 -20.02952003
ltibia  3.113710165 0.03446654975 13.73713112
lfoot  0.6231173277 -25.11961365 35.6588707
ltoes  -8.506763157 -18.16811184 -115.6267749
360
root  34.72937636 36.52182151 -14.82029562 8.044911385 -1.771208525 3.345445871
lowerback  -7.933990479 -0.1000750735 -0.2735171914
upperback  -3.489140034 0.2829529941 -2.994920015
thorax  0.8559079766 0.274533987 -2.910559893
lowerneck  -14.94250011 2.053260088 1.659039974
upperneck  17.25589943 1.979419947 4.113939762
head  7.771790028 1.596789956 1.322340131
lclavicle  0 -4.497500157e-015 -2.743230041e-014
lhumerus  -45.33919907 26.34320068 68.38809967
lradius  1.785696099e-006 -6.507048965e-006 30.60005379
lwrist  4.824992743e-007 -3.790274832e-007 -25.17869949
lhand  -4.405300586e-031 -36.72040176 -10.72439957
lfingers  90 7.125020027 -90
lthumb  94.74225044 -25.56571091 100.8814038
rclavicle  0 -4.497500157e-015 -2.743230041e-014
rhumerus  -59.59960175 -40.26779938 -41.25859451
rradius  -5.16745672e-007 2.214343908e-008 38.99470139
rwrist  -0.0001064338358 0.02974390797 -152.1439972
rhand  -1.775242907e-031 5.986219883 -7.881830215
rfingers  -90 -7.125020027 -90
rthumb  -84.88329923 -8.341505645 -58.31643225
rfemur  -11.11320305 15.9394207 14.0641737
rtibia  -1.282587886 0.1594296545 20.60179329
rfoot  0.03946667165 -19.80968285 -38.56452942
rtoes  4.099939364 19.59211694 -102.066185
lfemur  -7.094308376 -17.23958015 -19.96312523
ltibia  3.055375814 0.04065275565 13.83310223
lfoot  0.6153271794 -25.16541862 35.62095642
ltoes  -8.506763157 -18.16811184 -115.6267749
361
root  34.73003417 36.52080326 -14.82021001 8.023967743 -1.676290393 3.354566097
lowerback  -7.937430859 -0.1010320485 -0.2618216574
upperback  -3.48713994 0.2798059881 -2.978100061
thorax  0.8596850038 0.27729702 -2.899970055
lowerneck  -14.95629978 2.032890081 1.647600055
upperneck  17.22330093 1.961850047 4.050340176
head  7.764050007 1.579059958 1.300699949
lclavicle  0 -4.497500157e-015 -2.743230041e-014
lhumerus  -45.33810043 26.35000038 68.44580078
lradius  1.785696099e-006 -6.507048965e-006 30.61323166
lwrist  4.824992743e-007 -3.790274832e-007 -25.25079918
lhand  -4.405300586e-031 -36.72040176 -10.72439957
lfingers  90 7.125020027 -90
lthumb  94.74225044 -25.56571091 100.8814038
rclavicle  0 -4.497500157e-015 -2.743230041e-014
rhumerus  -60.00559998 -40.79930115 -40.76200104
rradius  -5.16745672e-007 2.214343908e-008 38.29040146
rwrist  -0.0001064338358 0.02974390797 -150.4819946
rhand  -1.775242907e-031 5.986219883 -7.881830215
rfingers  -90 -7.125020027 -90
rthumb  -84.88329923 -8.341505645 -58.31643225
rfemur  -11.10071659 15.9207859 14.0785284
rtibia  -1.291655302 0.1865266263 20.65097809
rfoot  0.01311798114 -19.78450203 -38.605793
rtoes  4.099939364 19.59211694 -102.066185
lfemur  -6.997572899 -17.28640175 -20.00341415
ltibia  3.115147352 0.05078289658 13.70835686
lfoot  0.5950083137 -25.12804604 35.60498047
ltoes  -8.506763157 -18.16811184 -115.6267749
